<svg id="Camada_1" data-name="Camada 1" xmlns="http://www.w3.org/2000/svg" viewBox="0 0 300 163.86"><defs><style>.cls-1{fill:#131336;}.cls-2{fill:#fec7b6;}.cls-3{fill:#414099;}.cls-4{fill:#e8a793;}.cls-5{fill:#fa7f81;}.cls-6{fill:none;stroke:#000;stroke-miterlimit:10;stroke-width:2px;}.cls-7{fill:#d8dcf0;}.cls-8{fill:#fff;}.cls-9{fill:#ff808b;}.cls-10{fill:#86a0f6;}.cls-11{fill:#ff9fa8;}</style></defs><title>woman</title><path class="cls-1" d="M116,143.27S92.92,116,110.53,91.54c0,0,3.91-23.47,29.34-23.47,0,0,22.5,1,28.37,26.41,0,0,23.47,10.76,6.84,39.12,0,0-3.91,4.89,2,9.78,0,0,8.65,8.47,8.24,14.51L111.51,163Z" transform="translate(0 -68.07)"/><path class="cls-2" d="M74,195.45S67.2,208.23,63.64,212.6c0,0-3.57,11.74,8.74,15.53h133s12.77-1.49,9.09-16.34a138.27,138.27,0,0,1-10.71-16.34Z" transform="translate(0 -68.07)"/><path class="cls-2" d="M209.32,188.38s-2,12.71-28.37,16.63h-87s-21.52-4.9-24.45-16.63c0,0,18.58-31.3,42.06-43,0,0,6-3.63,16.62-5.17V128.71h18.59v11.37a80.73,80.73,0,0,1,14.67,3.3s.43.11,1.21.38C168,145.62,190.53,155.07,209.32,188.38Z" transform="translate(0 -68.07)"/><path class="cls-3" d="M209.32,188.38s-2,12.71-28.37,16.63h-87s-21.52-4.9-24.45-16.63c0,0,18.58-31.3,42.06-43a19.74,19.74,0,0,0,17.6,10.76h15.65s13.2-1.19,17.84-12.34C168,145.62,190.53,155.07,209.32,188.38Z" transform="translate(0 -68.07)"/><path class="cls-2" d="M156.5,95.91v16.66c0,.47,0,.94-.05,1.4a19.19,19.19,0,0,1-10.12,15.46,19.08,19.08,0,0,1-28-16.86v-9.78s3.92-18.09,19.57-12.23c0,0,5.86,1,10.75-4.89C148.67,85.67,150.63,94.42,156.5,95.91Z" transform="translate(0 -68.07)"/><path class="cls-4" d="M146.33,129.43a9,9,0,0,1-17.8,0,19,19,0,0,0,17.8,0Z" transform="translate(0 -68.07)"/><path class="cls-2" d="M165.3,108.17s-3.91,11.74-8.8,5.87l-.05-.07c0-.46.05-.93.05-1.4V102l1,3.28S165.3,99.37,165.3,108.17Z" transform="translate(0 -68.07)"/><path class="cls-2" d="M109.55,108.17s3.91,11.74,8.8,5.87l.05-.07c0-.46-.05-.93-.05-1.4V102l-1,3.28S109.55,99.37,109.55,108.17Z" transform="translate(0 -68.07)"/><path d="M112.49,106.19a3.44,3.44,0,0,1,1.68.32c.25.14.48.32.73.46s.51.24.77.36a3.22,3.22,0,0,1,1.38,1.08,2.17,2.17,0,0,1,.35,1.72s0,0,0,0,0,0,0,0a4.38,4.38,0,0,0-.73-1.41,7,7,0,0,0-1.1-1.15,2.68,2.68,0,0,0-.69-.46,6,6,0,0,0-.81-.21,7.94,7.94,0,0,1-1.54-.66s0,0,0,0Z" transform="translate(0 -68.07)"/><path d="M162.37,106.24a6.36,6.36,0,0,1-1.42.63,4.91,4.91,0,0,0-.75.21,2.1,2.1,0,0,0-.62.45,4.1,4.1,0,0,0-.84,1.17,3.31,3.31,0,0,0-.26,1.42s0,0,0,0h0a1.84,1.84,0,0,1-.18-1.65,2.36,2.36,0,0,1,1.17-1.18c.24-.13.48-.23.71-.37s.43-.32.67-.45a2.88,2.88,0,0,1,1.56-.3,0,0,0,0,1,0,0A0,0,0,0,1,162.37,106.24Z" transform="translate(0 -68.07)"/><path d="M152.19,103.54a6.28,6.28,0,0,0-3.6-1.53l-5.85-.52a6.2,6.2,0,0,0-2.36.25,6.72,6.72,0,0,1,6-2.87A6.83,6.83,0,0,1,152.19,103.54Z" transform="translate(0 -68.07)"/><path d="M122.62,103.54a6.25,6.25,0,0,1,3.6-1.53l5.84-.52a6.25,6.25,0,0,1,2.37.25,6.73,6.73,0,0,0-6-2.87A6.83,6.83,0,0,0,122.62,103.54Z" transform="translate(0 -68.07)"/><path class="cls-5" d="M148.75,98.6a8.78,8.78,0,0,0-8.73,7.73,3.56,3.56,0,0,0-2.15-.72,3.61,3.61,0,0,0-2.42.93,8.78,8.78,0,1,0-.7,4.42,8.33,8.33,0,0,0,.55-1.71,7.93,7.93,0,0,0,.14-.85,2.39,2.39,0,0,1,4.61.34,8.57,8.57,0,0,0,.77,2.47,8.8,8.8,0,1,0,7.93-12.61ZM134.5,108a9,9,0,0,1-.21,1.38,7.87,7.87,0,1,1,.23-1.93C134.52,107.58,134.51,107.77,134.5,108Zm14.25,7.27a7.79,7.79,0,0,1-7.38-5.26,7.48,7.48,0,0,1-.44-2.56v-.06a7.83,7.83,0,1,1,7.82,7.88Z" transform="translate(0 -68.07)"/><path d="M136.49,110.78a10.34,10.34,0,0,0-.28,1.74,5,5,0,0,0,.08,1.65,1.14,1.14,0,0,0,.34.59.52.52,0,0,0,.21.18.68.68,0,0,0,.25.14,7,7,0,0,0,1.59.38h0a.08.08,0,0,1,0,.06l0,0a2.26,2.26,0,0,1-1.92.47,1.45,1.45,0,0,1-.95-.68,2.36,2.36,0,0,1-.32-1,6.82,6.82,0,0,1,.89-3.57.06.06,0,0,1,.07,0A0,0,0,0,1,136.49,110.78Z" transform="translate(0 -68.07)"/><path d="M131.31,118.07a5.9,5.9,0,0,0,2.85,1.63,8,8,0,0,0,3.26.17,23.6,23.6,0,0,0,3.18-.83c.53-.18,1.06-.33,1.6-.5a15.89,15.89,0,0,1,1.65-.49s.05,0,.06,0,0,0,0,0a13,13,0,0,1-1.4,1,16.24,16.24,0,0,1-1.55.81,10.12,10.12,0,0,1-3.45.67,8.55,8.55,0,0,1-3.48-.48,6.17,6.17,0,0,1-2.78-2.06,0,0,0,0,1,0-.06,0,0,0,0,1,.07,0Z" transform="translate(0 -68.07)"/><circle class="cls-1" cx="128.31" cy="39.43" r="2.52"/><circle class="cls-1" cx="145.82" cy="39.43" r="2.52"/><line class="cls-6" x1="74.91" y1="136.94" x2="202.99" y2="136.94"/><rect class="cls-7" x="93.55" y="102.42" width="88.03" height="57.65" rx="4"/><circle class="cls-8" cx="138.04" cy="131.63" r="5.49"/><rect class="cls-9" x="30.03" y="160.07" width="208.86" height="3.8" rx="1.9"/><path class="cls-10" d="M61.45,118v21.85a3.92,3.92,0,0,1-3.92,3.91H53.86v6.35l-7.37-6.35H3.91A3.92,3.92,0,0,1,0,139.85V118a3.92,3.92,0,0,1,3.91-3.91H57.53A3.92,3.92,0,0,1,61.45,118Z" transform="translate(0 -68.07)"/><rect class="cls-7" x="5.87" y="54.08" width="13.46" height="13.46" rx="4"/><rect class="cls-7" x="25.55" y="55.12" width="31.42" height="2.07" rx="1.04"/><rect class="cls-7" x="25.55" y="64.1" width="18.3" height="2.3" rx="1.15"/><path class="cls-9" d="M300,137.05V157.6a3.92,3.92,0,0,1-3.91,3.91H244.25l-8.12,8.11.17-8.11h-5.23a3.92,3.92,0,0,1-3.91-3.91V137.05a3.92,3.92,0,0,1,3.91-3.91h65A3.92,3.92,0,0,1,300,137.05Z" transform="translate(0 -68.07)"/><rect class="cls-11" x="281.53" y="71.86" width="10.18" height="13.98" rx="2"/><rect class="cls-11" x="235.96" y="71.86" width="27.62" height="2.24" rx="1.12"/><rect class="cls-11" x="235.96" y="77.56" width="36.94" height="2.59" rx="1.29"/><rect class="cls-11" x="235.96" y="84.46" width="18.47" height="2.42" rx="1.21"/></svg>